<svg xmlns="http://www.w3.org/2000/svg" xmlns:xlink="http://www.w3.org/1999/xlink" width="500" zoomAndPan="magnify" viewBox="0 0 375 374.999991" height="500" preserveAspectRatio="xMidYMid meet" version="1.0"><defs><clipPath id="d776aef1d7"><path d="M 187.5 0 C 83.945312 0 0 83.945312 0 187.5 C 0 291.054688 83.945312 375 187.5 375 C 291.054688 375 375 291.054688 375 187.5 C 375 83.945312 291.054688 0 187.5 0 " clip-rule="nonzero"/></clipPath><clipPath id="672561fb03"><path d="M 5.222656 5.222656 L 369.777344 5.222656 L 369.777344 369.777344 L 5.222656 369.777344 Z M 5.222656 5.222656 " clip-rule="nonzero"/></clipPath><clipPath id="d7f17ddce1"><path d="M 187.5 5.222656 C 86.832031 5.222656 5.222656 86.832031 5.222656 187.5 C 5.222656 288.167969 86.832031 369.777344 187.5 369.777344 C 288.167969 369.777344 369.777344 288.167969 369.777344 187.5 C 369.777344 86.832031 288.167969 5.222656 187.5 5.222656 " clip-rule="nonzero"/></clipPath><clipPath id="95d07ed8bc"><path d="M 70.832031 66.6875 L 244.117188 66.6875 L 244.117188 308.167969 L 70.832031 308.167969 Z M 70.832031 66.6875 " clip-rule="nonzero"/></clipPath><clipPath id="1951920f67"><path d="M 176.449219 132.488281 L 303.925781 132.488281 L 303.925781 221.695312 L 176.449219 221.695312 Z M 176.449219 132.488281 " clip-rule="nonzero"/></clipPath></defs><rect x="-37.5" width="450" fill="#ffffff" y="-37.499999" height="449.999989" fill-opacity="1"/><rect x="-37.5" width="450" fill="#ffffff" y="-37.499999" height="449.999989" fill-opacity="1"/><g clip-path="url(#d776aef1d7)"><rect x="-37.5" width="450" fill="#ffffff" y="-37.499999" height="449.999989" fill-opacity="1"/></g><g clip-path="url(#672561fb03)"><g clip-path="url(#d7f17ddce1)"><path fill="#6a77ef" d="M 5.222656 5.222656 L 369.777344 5.222656 L 369.777344 369.777344 L 5.222656 369.777344 Z M 5.222656 5.222656 " fill-opacity="1" fill-rule="nonzero"/></g></g><g clip-path="url(#95d07ed8bc)"><path fill="#ffffff" d="M 218.449219 308.167969 L 96.433594 308.167969 C 82.316406 308.167969 70.832031 296.675781 70.832031 282.558594 L 70.832031 123.5 C 70.832031 122.625 71.144531 121.777344 71.714844 121.109375 L 117.371094 67.957031 C 118.070312 67.152344 119.085938 66.6875 120.148438 66.6875 L 240.390625 66.6875 C 242.414062 66.6875 244.046875 68.324219 244.046875 70.34375 L 244.046875 125.671875 C 244.046875 127.691406 242.414062 129.328125 240.390625 129.328125 C 238.371094 129.328125 236.734375 127.691406 236.734375 125.671875 L 236.734375 74.003906 L 121.828125 74.003906 L 78.148438 124.855469 L 78.148438 282.558594 C 78.148438 292.644531 86.351562 300.851562 96.433594 300.851562 L 218.449219 300.851562 C 228.53125 300.851562 236.734375 292.644531 236.734375 282.558594 L 236.734375 274.195312 C 236.734375 272.171875 238.371094 270.535156 240.390625 270.535156 C 242.414062 270.535156 244.046875 272.171875 244.046875 274.195312 L 244.046875 282.558594 C 244.046875 296.675781 232.5625 308.167969 218.449219 308.167969 " fill-opacity="1" fill-rule="nonzero"/></g><path fill="#ffffff" d="M 125.128906 129.328125 L 100.527344 129.328125 C 98.507812 129.328125 96.871094 127.691406 96.871094 125.671875 C 96.871094 123.644531 98.507812 122.011719 100.527344 122.011719 L 121.46875 122.011719 L 121.46875 98.527344 C 121.46875 96.507812 123.105469 94.871094 125.128906 94.871094 C 127.148438 94.871094 128.785156 96.507812 128.785156 98.527344 L 128.785156 125.671875 C 128.785156 127.691406 127.148438 129.328125 125.128906 129.328125 " fill-opacity="1" fill-rule="nonzero"/><path fill="#ffffff" d="M 157.4375 158.636719 L 100.527344 158.636719 C 98.507812 158.636719 96.871094 157 96.871094 154.976562 C 96.871094 152.953125 98.507812 151.316406 100.527344 151.316406 L 157.4375 151.316406 C 159.460938 151.316406 161.097656 152.953125 161.097656 154.976562 C 161.097656 157 159.460938 158.636719 157.4375 158.636719 " fill-opacity="1" fill-rule="nonzero"/><path fill="#ffffff" d="M 157.4375 199.523438 L 100.527344 199.523438 C 98.507812 199.523438 96.871094 197.886719 96.871094 195.863281 C 96.871094 193.84375 98.507812 192.207031 100.527344 192.207031 L 157.4375 192.207031 C 159.460938 192.207031 161.097656 193.84375 161.097656 195.863281 C 161.097656 197.886719 159.460938 199.523438 157.4375 199.523438 " fill-opacity="1" fill-rule="nonzero"/><path fill="#ffffff" d="M 157.4375 240.414062 L 100.527344 240.414062 C 98.507812 240.414062 96.871094 238.777344 96.871094 236.753906 C 96.871094 234.734375 98.507812 233.097656 100.527344 233.097656 L 157.4375 233.097656 C 159.460938 233.097656 161.097656 234.734375 161.097656 236.753906 C 161.097656 238.777344 159.460938 240.414062 157.4375 240.414062 " fill-opacity="1" fill-rule="nonzero"/><path fill="#ffffff" d="M 157.4375 281.304688 L 100.527344 281.304688 C 98.507812 281.304688 96.871094 279.667969 96.871094 277.644531 C 96.871094 275.625 98.507812 273.988281 100.527344 273.988281 L 157.4375 273.988281 C 159.460938 273.988281 161.097656 275.625 161.097656 277.644531 C 161.097656 279.667969 159.460938 281.304688 157.4375 281.304688 " fill-opacity="1" fill-rule="nonzero"/><g clip-path="url(#1951920f67)"><path fill="#ffffff" d="M 284.070312 221.277344 L 214.011719 221.277344 C 208.128906 221.277344 203.125 216.875 202.363281 211.039062 L 193.722656 144.605469 L 179.390625 140.019531 C 177.46875 139.398438 176.410156 137.339844 177.027344 135.417969 C 177.636719 133.496094 179.6875 132.457031 181.621094 133.046875 L 198.164062 138.339844 C 199.511719 138.777344 200.488281 139.949219 200.671875 141.355469 L 209.617188 210.09375 C 209.90625 212.296875 211.792969 213.960938 214.011719 213.960938 L 284.070312 213.960938 C 286.117188 213.960938 287.890625 212.570312 288.378906 210.585938 L 296.484375 177.601562 C 296.789062 176.378906 296.566406 175.128906 295.867188 174.078125 C 295.167969 173.027344 294.097656 172.347656 292.855469 172.15625 L 223.425781 161.496094 C 221.433594 161.183594 220.058594 159.320312 220.363281 157.320312 C 220.671875 155.324219 222.535156 153.945312 224.535156 154.261719 L 293.960938 164.921875 C 297.214844 165.425781 300.125 167.28125 301.949219 170.019531 C 303.777344 172.75 304.371094 176.148438 303.585938 179.34375 L 295.480469 212.328125 C 294.1875 217.597656 289.492188 221.277344 284.070312 221.277344 " fill-opacity="1" fill-rule="nonzero"/></g><path fill="#ffffff" d="M 219.199219 242.359375 C 218.125 242.359375 217.253906 243.230469 217.253906 244.3125 C 217.253906 246.453125 221.144531 246.453125 221.144531 244.3125 C 221.144531 243.230469 220.273438 242.359375 219.199219 242.359375 Z M 219.199219 253.570312 C 214.09375 253.570312 209.941406 249.417969 209.941406 244.3125 C 209.941406 239.199219 214.09375 235.039062 219.199219 235.039062 C 224.304688 235.039062 228.457031 239.199219 228.457031 244.3125 C 228.457031 249.417969 224.304688 253.570312 219.199219 253.570312 " fill-opacity="1" fill-rule="nonzero"/><path fill="#ffffff" d="M 277.34375 242.359375 C 276.269531 242.359375 275.394531 243.230469 275.394531 244.3125 C 275.394531 246.453125 279.285156 246.453125 279.285156 244.3125 C 279.285156 243.230469 278.414062 242.359375 277.34375 242.359375 Z M 277.34375 253.570312 C 272.238281 253.570312 268.082031 249.417969 268.082031 244.3125 C 268.082031 239.199219 272.238281 235.039062 277.34375 235.039062 C 282.445312 235.039062 286.601562 239.199219 286.601562 244.3125 C 286.601562 249.417969 282.445312 253.570312 277.34375 253.570312 " fill-opacity="1" fill-rule="nonzero"/></svg>