<svg xmlns="http://www.w3.org/2000/svg" xmlns:xlink="http://www.w3.org/1999/xlink" width="500" zoomAndPan="magnify" viewBox="0 0 375 374.999991" height="500" preserveAspectRatio="xMidYMid meet" version="1.0"><defs><clipPath id="4a20116c37"><path d="M 187.5 0 C 83.945312 0 0 83.945312 0 187.5 C 0 291.054688 83.945312 375 187.5 375 C 291.054688 375 375 291.054688 375 187.5 C 375 83.945312 291.054688 0 187.5 0 " clip-rule="nonzero"/></clipPath><clipPath id="0363f074f9"><path d="M 5.222656 5.222656 L 369.777344 5.222656 L 369.777344 369.777344 L 5.222656 369.777344 Z M 5.222656 5.222656 " clip-rule="nonzero"/></clipPath><clipPath id="6d4fc4674a"><path d="M 187.5 5.222656 C 86.832031 5.222656 5.222656 86.832031 5.222656 187.5 C 5.222656 288.167969 86.832031 369.777344 187.5 369.777344 C 288.167969 369.777344 369.777344 288.167969 369.777344 187.5 C 369.777344 86.832031 288.167969 5.222656 187.5 5.222656 " clip-rule="nonzero"/></clipPath><clipPath id="fe36fe9c43"><path d="M 66.242188 114 L 172 114 L 172 308.492188 L 66.242188 308.492188 Z M 66.242188 114 " clip-rule="nonzero"/></clipPath><clipPath id="ae6765f3e9"><path d="M 203 114 L 308.492188 114 L 308.492188 308.492188 L 203 308.492188 Z M 203 114 " clip-rule="nonzero"/></clipPath><clipPath id="195425fa58"><path d="M 118 66.242188 L 257 66.242188 L 257 220 L 118 220 Z M 118 66.242188 " clip-rule="nonzero"/></clipPath></defs><rect x="-37.5" width="450" fill="#ffffff" y="-37.499999" height="449.999989" fill-opacity="1"/><rect x="-37.5" width="450" fill="#ffffff" y="-37.499999" height="449.999989" fill-opacity="1"/><rect x="-37.5" width="450" fill="#ffffff" y="-37.499999" height="449.999989" fill-opacity="1"/><g clip-path="url(#4a20116c37)"><rect x="-37.5" width="450" fill="#ffffff" y="-37.499999" height="449.999989" fill-opacity="1"/></g><g clip-path="url(#0363f074f9)"><g clip-path="url(#6d4fc4674a)"><path fill="#6a77ef" d="M 5.222656 5.222656 L 369.777344 5.222656 L 369.777344 369.777344 L 5.222656 369.777344 Z M 5.222656 5.222656 " fill-opacity="1" fill-rule="nonzero"/></g></g><g clip-path="url(#fe36fe9c43)"><path fill="#ffffff" d="M 106.617188 289.347656 L 106.617188 308.492188 L 114.695312 308.492188 L 114.695312 288.304688 C 114.695312 287.628906 114.519531 286.949219 114.1875 286.351562 L 77.882812 220.992188 C 75.546875 216.796875 74.320312 212.050781 74.320312 207.257812 L 74.320312 130.84375 C 74.320312 126.394531 77.945312 122.769531 82.394531 122.769531 C 86.839844 122.769531 90.46875 126.394531 90.46875 130.84375 L 90.46875 188.789062 C 85.46875 194.640625 85.46875 203.328125 90.738281 209.117188 L 123.824219 245.503906 L 129.785156 240.0625 L 96.714844 203.675781 C 94.078125 200.773438 94.175781 196.328125 96.949219 193.550781 C 98.402344 192.117188 100.339844 191.390625 102.34375 191.40625 C 104.378906 191.46875 106.238281 192.320312 107.597656 193.835938 L 135.921875 225.296875 C 136.207031 225.613281 136.757812 226.007812 137.136719 226.230469 C 153.175781 235.390625 163.144531 252.566406 163.144531 271.050781 L 163.144531 308.492188 L 171.21875 308.492188 L 171.21875 268.117188 L 171.125 268.117188 C 170.128906 248.105469 159.089844 229.746094 141.488281 219.433594 L 113.605469 188.441406 C 110.75 185.253906 106.824219 183.457031 102.550781 183.332031 C 101.160156 183.300781 99.835938 183.503906 98.542969 183.804688 L 98.542969 130.84375 C 98.542969 121.933594 91.304688 114.695312 82.394531 114.695312 C 73.484375 114.695312 66.242188 121.933594 66.242188 130.84375 L 66.242188 207.257812 C 66.242188 213.421875 67.820312 219.527344 70.816406 224.90625 L 106.617188 289.347656 " fill-opacity="1" fill-rule="nonzero"/></g><g clip-path="url(#ae6765f3e9)"><path fill="#ffffff" d="M 292.34375 114.695312 C 283.433594 114.695312 276.195312 121.933594 276.195312 130.84375 L 276.195312 183.804688 C 274.898438 183.503906 273.558594 183.300781 272.1875 183.332031 C 267.914062 183.457031 263.984375 185.253906 261.132812 188.441406 L 233.246094 219.417969 C 215.757812 229.574219 204.605469 248.007812 203.613281 268.117188 L 203.519531 268.117188 L 203.519531 308.492188 L 211.59375 308.492188 L 211.59375 271.050781 C 211.59375 252.566406 221.5625 235.390625 237.789062 226.117188 C 238.167969 225.898438 238.515625 225.628906 238.816406 225.296875 L 267.140625 193.835938 C 268.496094 192.320312 270.359375 191.46875 272.390625 191.40625 C 274.472656 191.40625 276.335938 192.117188 277.785156 193.550781 C 280.5625 196.328125 280.65625 200.773438 278.023438 203.675781 L 244.949219 240.0625 L 250.910156 245.503906 L 284 209.117188 C 289.269531 203.328125 289.269531 194.640625 284.269531 188.789062 L 284.269531 130.84375 C 284.269531 126.394531 287.894531 122.769531 292.34375 122.769531 C 296.789062 122.769531 300.417969 126.394531 300.417969 130.84375 L 300.417969 206.832031 C 300.417969 211.878906 299.0625 216.828125 296.460938 221.261719 L 260.546875 286.351562 C 260.21875 286.949219 260.042969 287.628906 260.042969 288.304688 L 260.042969 308.492188 L 268.117188 308.492188 L 268.117188 289.347656 L 303.476562 225.265625 C 306.757812 219.683594 308.492188 213.3125 308.492188 206.832031 L 308.492188 130.84375 C 308.492188 121.933594 301.253906 114.695312 292.34375 114.695312 " fill-opacity="1" fill-rule="nonzero"/></g><g clip-path="url(#195425fa58)"><path fill="#ffffff" d="M 247.929688 175.917969 L 191.40625 208.628906 L 191.40625 145.320312 L 247.929688 113.527344 Z M 187.367188 138.320312 L 161.503906 123.777344 L 217.871094 92.078125 L 243.734375 106.617188 Z M 183.332031 208.628906 L 126.804688 175.917969 L 126.804688 113.527344 L 183.332031 145.320312 Z M 187.367188 74.917969 L 209.636719 87.441406 L 153.269531 119.140625 L 131 106.617188 Z M 256.007812 178.253906 L 256.007812 106.617188 C 256.007812 106.253906 255.957031 105.910156 255.863281 105.5625 C 255.832031 105.453125 255.769531 105.339844 255.722656 105.230469 C 255.644531 105.007812 255.578125 104.789062 255.453125 104.601562 C 255.390625 104.472656 255.296875 104.394531 255.21875 104.285156 C 255.089844 104.109375 254.980469 103.921875 254.824219 103.765625 C 254.726562 103.683594 254.617188 103.621094 254.523438 103.527344 C 254.351562 103.402344 254.191406 103.242188 254.003906 103.132812 C 254.003906 103.132812 253.988281 103.132812 253.972656 103.117188 C 253.957031 103.117188 253.957031 103.101562 253.941406 103.101562 L 189.339844 66.765625 C 188.109375 66.070312 186.628906 66.070312 185.398438 66.765625 L 120.796875 103.101562 C 120.78125 103.101562 120.78125 103.117188 120.765625 103.117188 C 120.765625 103.132812 120.734375 103.132812 120.734375 103.132812 C 120.542969 103.242188 120.386719 103.402344 120.214844 103.527344 C 120.117188 103.621094 120.007812 103.683594 119.914062 103.765625 C 119.757812 103.921875 119.644531 104.109375 119.519531 104.285156 C 119.441406 104.394531 119.347656 104.472656 119.28125 104.601562 C 119.15625 104.789062 119.09375 105.007812 119.015625 105.230469 C 118.96875 105.339844 118.90625 105.453125 118.871094 105.5625 C 118.777344 105.910156 118.730469 106.253906 118.730469 106.617188 L 118.730469 178.253906 C 118.730469 179.703125 119.503906 181.027344 120.75 181.753906 L 185.351562 219.117188 C 185.351562 219.117188 185.351562 219.132812 185.351562 219.132812 C 185.585938 219.273438 185.855469 219.351562 186.121094 219.449219 C 186.183594 219.464844 186.25 219.511719 186.328125 219.542969 C 186.675781 219.621094 187.019531 219.667969 187.367188 219.667969 C 187.714844 219.667969 188.0625 219.621094 188.410156 219.542969 C 188.488281 219.511719 188.550781 219.464844 188.613281 219.449219 C 188.882812 219.351562 189.152344 219.273438 189.386719 219.132812 C 189.386719 219.132812 189.386719 219.117188 189.386719 219.117188 L 253.988281 181.753906 C 255.234375 181.027344 256.007812 179.703125 256.007812 178.253906 " fill-opacity="1" fill-rule="nonzero"/></g><path fill="#ffffff" d="M 239.855469 167.179688 L 231.78125 167.179688 L 231.78125 175.257812 L 239.855469 175.257812 L 239.855469 167.179688 " fill-opacity="1" fill-rule="nonzero"/><path fill="#ffffff" d="M 223.707031 175.257812 L 215.632812 175.257812 L 215.632812 183.332031 L 223.707031 183.332031 L 223.707031 175.257812 " fill-opacity="1" fill-rule="nonzero"/><path fill="#ffffff" d="M 207.554688 183.332031 L 199.480469 183.332031 L 199.480469 191.40625 L 207.554688 191.40625 L 207.554688 183.332031 " fill-opacity="1" fill-rule="nonzero"/></svg>