<svg xmlns="http://www.w3.org/2000/svg" xmlns:xlink="http://www.w3.org/1999/xlink" width="500" zoomAndPan="magnify" viewBox="0 0 375 374.999991" height="500" preserveAspectRatio="xMidYMid meet" version="1.0"><defs><clipPath id="bb7f8bacbc"><path d="M 187.5 0 C 83.945312 0 0 83.945312 0 187.5 C 0 291.054688 83.945312 375 187.5 375 C 291.054688 375 375 291.054688 375 187.5 C 375 83.945312 291.054688 0 187.5 0 " clip-rule="nonzero"/></clipPath><clipPath id="46223967f0"><path d="M 5.222656 5.222656 L 369.777344 5.222656 L 369.777344 369.777344 L 5.222656 369.777344 Z M 5.222656 5.222656 " clip-rule="nonzero"/></clipPath><clipPath id="03510f908a"><path d="M 187.5 5.222656 C 86.832031 5.222656 5.222656 86.832031 5.222656 187.5 C 5.222656 288.167969 86.832031 369.777344 187.5 369.777344 C 288.167969 369.777344 369.777344 288.167969 369.777344 187.5 C 369.777344 86.832031 288.167969 5.222656 187.5 5.222656 " clip-rule="nonzero"/></clipPath><clipPath id="41cc52cccd"><path d="M 121 70.210938 L 173 70.210938 L 173 122 L 121 122 Z M 121 70.210938 " clip-rule="nonzero"/></clipPath><clipPath id="c745c4071d"><path d="M 201 70.210938 L 253 70.210938 L 253 122 L 201 122 Z M 201 70.210938 " clip-rule="nonzero"/></clipPath><clipPath id="6d3b8ebf03"><path d="M 141 228 L 234 228 L 234 304.960938 L 141 304.960938 Z M 141 228 " clip-rule="nonzero"/></clipPath><clipPath id="c7f9683816"><path d="M 60.011719 197 L 151 197 L 151 275 L 60.011719 275 Z M 60.011719 197 " clip-rule="nonzero"/></clipPath><clipPath id="e18f511201"><path d="M 224 197 L 315.011719 197 L 315.011719 275 L 224 275 Z M 224 197 " clip-rule="nonzero"/></clipPath></defs><rect x="-37.5" width="450" fill="#ffffff" y="-37.499999" height="449.999989" fill-opacity="1"/><rect x="-37.5" width="450" fill="#ffffff" y="-37.499999" height="449.999989" fill-opacity="1"/><rect x="-37.5" width="450" fill="#ffffff" y="-37.499999" height="449.999989" fill-opacity="1"/><g clip-path="url(#bb7f8bacbc)"><rect x="-37.5" width="450" fill="#ffffff" y="-37.499999" height="449.999989" fill-opacity="1"/></g><g clip-path="url(#46223967f0)"><g clip-path="url(#03510f908a)"><path fill="#6a77ef" d="M 5.222656 5.222656 L 369.777344 5.222656 L 369.777344 369.777344 L 5.222656 369.777344 Z M 5.222656 5.222656 " fill-opacity="1" fill-rule="nonzero"/></g></g><g clip-path="url(#41cc52cccd)"><path fill="#ffffff" d="M 172.210938 95.726562 C 172.210938 96.5625 172.167969 97.394531 172.085938 98.226562 C 172.003906 99.058594 171.882812 99.882812 171.71875 100.703125 C 171.558594 101.523438 171.355469 102.332031 171.113281 103.132812 C 170.871094 103.933594 170.589844 104.71875 170.269531 105.488281 C 169.949219 106.261719 169.59375 107.015625 169.199219 107.753906 C 168.804688 108.492188 168.375 109.207031 167.914062 109.902344 C 167.449219 110.597656 166.953125 111.265625 166.421875 111.914062 C 165.890625 112.558594 165.332031 113.175781 164.742188 113.769531 C 164.152344 114.359375 163.53125 114.917969 162.886719 115.449219 C 162.242188 115.980469 161.570312 116.476562 160.878906 116.941406 C 160.183594 117.40625 159.46875 117.835938 158.730469 118.230469 C 157.996094 118.621094 157.242188 118.980469 156.46875 119.300781 C 155.699219 119.621094 154.910156 119.902344 154.113281 120.144531 C 153.3125 120.386719 152.503906 120.589844 151.683594 120.75 C 150.867188 120.914062 150.042969 121.035156 149.210938 121.117188 C 148.378906 121.199219 147.546875 121.242188 146.710938 121.242188 C 145.875 121.242188 145.042969 121.199219 144.210938 121.117188 C 143.378906 121.035156 142.554688 120.914062 141.734375 120.75 C 140.917969 120.589844 140.109375 120.386719 139.308594 120.144531 C 138.507812 119.902344 137.722656 119.621094 136.953125 119.300781 C 136.179688 118.980469 135.425781 118.621094 134.691406 118.230469 C 133.953125 117.835938 133.238281 117.40625 132.542969 116.941406 C 131.847656 116.476562 131.179688 115.980469 130.535156 115.449219 C 129.886719 114.917969 129.269531 114.359375 128.679688 113.769531 C 128.089844 113.175781 127.527344 112.558594 127 111.914062 C 126.46875 111.265625 125.972656 110.597656 125.507812 109.902344 C 125.042969 109.207031 124.617188 108.492188 124.222656 107.753906 C 123.828125 107.015625 123.472656 106.261719 123.152344 105.488281 C 122.832031 104.71875 122.550781 103.933594 122.308594 103.132812 C 122.066406 102.332031 121.863281 101.523438 121.699219 100.703125 C 121.539062 99.882812 121.414062 99.058594 121.332031 98.226562 C 121.253906 97.394531 121.210938 96.5625 121.210938 95.726562 C 121.210938 94.890625 121.253906 94.054688 121.332031 93.222656 C 121.414062 92.394531 121.539062 91.566406 121.699219 90.746094 C 121.863281 89.929688 122.066406 89.117188 122.308594 88.320312 C 122.550781 87.519531 122.832031 86.734375 123.152344 85.960938 C 123.472656 85.1875 123.828125 84.433594 124.222656 83.695312 C 124.617188 82.960938 125.042969 82.246094 125.507812 81.550781 C 125.972656 80.855469 126.46875 80.183594 127 79.539062 C 127.527344 78.890625 128.089844 78.273438 128.679688 77.683594 C 129.269531 77.089844 129.886719 76.53125 130.535156 76 C 131.179688 75.472656 131.847656 74.972656 132.542969 74.507812 C 133.238281 74.046875 133.953125 73.617188 134.691406 73.222656 C 135.425781 72.828125 136.179688 72.472656 136.953125 72.152344 C 137.722656 71.832031 138.507812 71.550781 139.308594 71.308594 C 140.109375 71.066406 140.917969 70.863281 141.734375 70.699219 C 142.554688 70.535156 143.378906 70.414062 144.210938 70.332031 C 145.042969 70.25 145.875 70.210938 146.710938 70.210938 C 147.546875 70.210938 148.378906 70.25 149.210938 70.332031 C 150.042969 70.414062 150.867188 70.535156 151.683594 70.699219 C 152.503906 70.863281 153.3125 71.066406 154.113281 71.308594 C 154.910156 71.550781 155.699219 71.832031 156.46875 72.152344 C 157.242188 72.472656 157.996094 72.828125 158.730469 73.222656 C 159.46875 73.617188 160.183594 74.046875 160.878906 74.507812 C 161.570312 74.972656 162.242188 75.472656 162.886719 76 C 163.53125 76.53125 164.152344 77.089844 164.742188 77.683594 C 165.332031 78.273438 165.890625 78.890625 166.421875 79.539062 C 166.953125 80.183594 167.449219 80.855469 167.914062 81.550781 C 168.375 82.246094 168.804688 82.960938 169.199219 83.695312 C 169.59375 84.433594 169.949219 85.1875 170.269531 85.960938 C 170.589844 86.734375 170.871094 87.519531 171.113281 88.320312 C 171.355469 89.117188 171.558594 89.929688 171.71875 90.746094 C 171.882812 91.566406 172.003906 92.394531 172.085938 93.222656 C 172.167969 94.054688 172.210938 94.890625 172.210938 95.726562 Z M 172.210938 95.726562 " fill-opacity="1" fill-rule="nonzero"/></g><g clip-path="url(#c745c4071d)"><path fill="#ffffff" d="M 252.789062 95.726562 C 252.789062 96.5625 252.746094 97.394531 252.664062 98.226562 C 252.585938 99.058594 252.460938 99.882812 252.296875 100.703125 C 252.136719 101.523438 251.933594 102.332031 251.691406 103.132812 C 251.449219 103.933594 251.167969 104.71875 250.847656 105.488281 C 250.527344 106.261719 250.171875 107.015625 249.777344 107.753906 C 249.382812 108.492188 248.957031 109.207031 248.492188 109.902344 C 248.027344 110.597656 247.53125 111.265625 247 111.914062 C 246.472656 112.558594 245.910156 113.175781 245.320312 113.769531 C 244.730469 114.359375 244.113281 114.917969 243.464844 115.449219 C 242.820312 115.980469 242.148438 116.476562 241.457031 116.941406 C 240.761719 117.40625 240.046875 117.835938 239.308594 118.230469 C 238.574219 118.621094 237.820312 118.980469 237.046875 119.300781 C 236.277344 119.621094 235.492188 119.902344 234.691406 120.144531 C 233.890625 120.386719 233.082031 120.589844 232.265625 120.75 C 231.445312 120.914062 230.621094 121.035156 229.789062 121.117188 C 228.957031 121.199219 228.125 121.242188 227.289062 121.242188 C 226.453125 121.242188 225.621094 121.199219 224.789062 121.117188 C 223.957031 121.035156 223.132812 120.914062 222.316406 120.75 C 221.496094 120.589844 220.6875 120.386719 219.886719 120.144531 C 219.085938 119.902344 218.300781 119.621094 217.53125 119.300781 C 216.757812 118.980469 216.003906 118.621094 215.269531 118.230469 C 214.53125 117.835938 213.816406 117.40625 213.121094 116.941406 C 212.429688 116.476562 211.757812 115.980469 211.113281 115.449219 C 210.46875 114.917969 209.847656 114.359375 209.257812 113.769531 C 208.667969 113.175781 208.109375 112.558594 207.578125 111.914062 C 207.046875 111.265625 206.550781 110.597656 206.085938 109.902344 C 205.625 109.207031 205.195312 108.492188 204.800781 107.753906 C 204.40625 107.015625 204.050781 106.261719 203.730469 105.488281 C 203.410156 104.71875 203.128906 103.933594 202.886719 103.132812 C 202.644531 102.332031 202.441406 101.523438 202.28125 100.703125 C 202.117188 99.882812 201.996094 99.058594 201.914062 98.226562 C 201.832031 97.394531 201.789062 96.5625 201.789062 95.726562 C 201.789062 94.890625 201.832031 94.054688 201.914062 93.222656 C 201.996094 92.394531 202.117188 91.566406 202.28125 90.746094 C 202.441406 89.929688 202.644531 89.117188 202.886719 88.320312 C 203.128906 87.519531 203.410156 86.734375 203.730469 85.960938 C 204.050781 85.1875 204.40625 84.433594 204.800781 83.695312 C 205.195312 82.960938 205.625 82.246094 206.085938 81.550781 C 206.550781 80.855469 207.046875 80.183594 207.578125 79.539062 C 208.109375 78.890625 208.667969 78.273438 209.257812 77.683594 C 209.847656 77.089844 210.46875 76.53125 211.113281 76 C 211.757812 75.472656 212.429688 74.972656 213.121094 74.507812 C 213.816406 74.046875 214.53125 73.617188 215.269531 73.222656 C 216.003906 72.828125 216.757812 72.472656 217.53125 72.152344 C 218.300781 71.832031 219.085938 71.550781 219.886719 71.308594 C 220.6875 71.066406 221.496094 70.863281 222.316406 70.699219 C 223.132812 70.535156 223.957031 70.414062 224.789062 70.332031 C 225.621094 70.25 226.453125 70.210938 227.289062 70.210938 C 228.125 70.210938 228.957031 70.25 229.789062 70.332031 C 230.621094 70.414062 231.445312 70.535156 232.265625 70.699219 C 233.082031 70.863281 233.890625 71.066406 234.691406 71.308594 C 235.492188 71.550781 236.277344 71.832031 237.046875 72.152344 C 237.820312 72.472656 238.574219 72.828125 239.308594 73.222656 C 240.046875 73.617188 240.761719 74.046875 241.457031 74.507812 C 242.148438 74.972656 242.820312 75.472656 243.464844 76 C 244.113281 76.53125 244.730469 77.089844 245.320312 77.683594 C 245.910156 78.273438 246.472656 78.890625 247 79.539062 C 247.53125 80.183594 248.027344 80.855469 248.492188 81.550781 C 248.957031 82.246094 249.382812 82.960938 249.777344 83.695312 C 250.171875 84.433594 250.527344 85.1875 250.847656 85.960938 C 251.167969 86.734375 251.449219 87.519531 251.691406 88.320312 C 251.933594 89.117188 252.136719 89.929688 252.296875 90.746094 C 252.460938 91.566406 252.585938 92.394531 252.664062 93.222656 C 252.746094 94.054688 252.789062 94.890625 252.789062 95.726562 Z M 252.789062 95.726562 " fill-opacity="1" fill-rule="nonzero"/></g><path fill="#ffffff" d="M 218.246094 192.824219 C 218.246094 193.828125 218.199219 194.828125 218.101562 195.828125 C 218 196.824219 217.855469 197.816406 217.660156 198.796875 C 217.464844 199.78125 217.21875 200.753906 216.929688 201.714844 C 216.636719 202.671875 216.300781 203.617188 215.917969 204.542969 C 215.535156 205.46875 215.105469 206.375 214.632812 207.257812 C 214.160156 208.144531 213.648438 209.003906 213.089844 209.835938 C 212.535156 210.671875 211.9375 211.476562 211.300781 212.25 C 210.664062 213.023438 209.992188 213.765625 209.285156 214.476562 C 208.574219 215.1875 207.835938 215.859375 207.058594 216.496094 C 206.285156 217.128906 205.480469 217.726562 204.648438 218.285156 C 203.816406 218.839844 202.957031 219.355469 202.070312 219.828125 C 201.1875 220.300781 200.285156 220.730469 199.359375 221.113281 C 198.429688 221.496094 197.488281 221.835938 196.53125 222.125 C 195.570312 222.417969 194.601562 222.660156 193.617188 222.855469 C 192.632812 223.050781 191.644531 223.199219 190.648438 223.296875 C 189.648438 223.394531 188.648438 223.445312 187.648438 223.445312 C 186.644531 223.445312 185.644531 223.394531 184.648438 223.296875 C 183.652344 223.199219 182.660156 223.050781 181.679688 222.855469 C 180.695312 222.660156 179.722656 222.417969 178.765625 222.125 C 177.804688 221.835938 176.863281 221.496094 175.9375 221.113281 C 175.011719 220.730469 174.105469 220.300781 173.222656 219.828125 C 172.339844 219.355469 171.480469 218.839844 170.648438 218.285156 C 169.8125 217.726562 169.011719 217.128906 168.234375 216.496094 C 167.460938 215.859375 166.71875 215.1875 166.011719 214.476562 C 165.300781 213.765625 164.628906 213.023438 163.992188 212.25 C 163.359375 211.476562 162.761719 210.671875 162.207031 209.835938 C 161.648438 209.003906 161.132812 208.144531 160.660156 207.257812 C 160.1875 206.375 159.761719 205.46875 159.378906 204.542969 C 158.992188 203.617188 158.65625 202.671875 158.367188 201.714844 C 158.074219 200.753906 157.832031 199.78125 157.636719 198.796875 C 157.441406 197.816406 157.292969 196.824219 157.195312 195.828125 C 157.097656 194.828125 157.046875 193.828125 157.046875 192.824219 C 157.046875 191.824219 157.097656 190.820312 157.195312 189.824219 C 157.292969 188.824219 157.441406 187.835938 157.636719 186.851562 C 157.832031 185.867188 158.074219 184.894531 158.367188 183.9375 C 158.65625 182.976562 158.992188 182.035156 159.378906 181.109375 C 159.761719 180.179688 160.1875 179.277344 160.660156 178.390625 C 161.132812 177.507812 161.648438 176.648438 162.207031 175.8125 C 162.761719 174.980469 163.359375 174.175781 163.992188 173.398438 C 164.628906 172.625 165.300781 171.882812 166.011719 171.175781 C 166.71875 170.464844 167.460938 169.792969 168.234375 169.15625 C 169.011719 168.519531 169.8125 167.921875 170.648438 167.367188 C 171.480469 166.808594 172.339844 166.292969 173.222656 165.820312 C 174.105469 165.347656 175.011719 164.921875 175.9375 164.535156 C 176.863281 164.152344 177.804688 163.816406 178.765625 163.523438 C 179.722656 163.234375 180.695312 162.988281 181.679688 162.792969 C 182.660156 162.597656 183.652344 162.453125 184.648438 162.351562 C 185.644531 162.253906 186.644531 162.207031 187.648438 162.207031 C 188.648438 162.207031 189.648438 162.253906 190.648438 162.351562 C 191.644531 162.453125 192.632812 162.597656 193.617188 162.792969 C 194.601562 162.988281 195.570312 163.234375 196.53125 163.523438 C 197.488281 163.816406 198.429688 164.152344 199.359375 164.535156 C 200.285156 164.921875 201.1875 165.347656 202.070312 165.820312 C 202.957031 166.292969 203.816406 166.808594 204.648438 167.367188 C 205.480469 167.921875 206.285156 168.519531 207.058594 169.15625 C 207.835938 169.792969 208.574219 170.464844 209.285156 171.175781 C 209.992188 171.882812 210.664062 172.625 211.300781 173.398438 C 211.9375 174.175781 212.535156 174.980469 213.089844 175.8125 C 213.648438 176.648438 214.160156 177.507812 214.632812 178.390625 C 215.105469 179.277344 215.535156 180.179688 215.917969 181.109375 C 216.300781 182.035156 216.636719 182.976562 216.929688 183.9375 C 217.21875 184.894531 217.464844 185.867188 217.660156 186.851562 C 217.855469 187.835938 218 188.824219 218.101562 189.824219 C 218.199219 190.820312 218.246094 191.824219 218.246094 192.824219 Z M 218.246094 192.824219 " fill-opacity="1" fill-rule="nonzero"/><g clip-path="url(#6d3b8ebf03)"><path fill="#ffffff" d="M 187.648438 305.097656 C 156.253906 305.097656 144.972656 297.308594 143.789062 296.421875 C 142.503906 295.460938 141.75 293.945312 141.75 292.339844 L 141.75 274.476562 C 141.75 249.148438 162.34375 228.546875 187.648438 228.546875 C 212.957031 228.546875 233.546875 249.148438 233.546875 274.476562 L 233.546875 292.339844 C 233.546875 293.941406 232.792969 295.457031 231.507812 296.421875 C 230.328125 297.308594 219.042969 305.097656 187.648438 305.097656 Z M 187.648438 305.097656 " fill-opacity="1" fill-rule="nonzero"/></g><g clip-path="url(#c7f9683816)"><path fill="#ffffff" d="M 150.398438 232.621094 C 145.421875 212.652344 127.386719 197.789062 105.910156 197.789062 C 80.605469 197.789062 60.011719 218.390625 60.011719 243.71875 L 60.011719 261.582031 C 60.011719 263.183594 60.765625 264.699219 62.050781 265.664062 C 63.234375 266.550781 74.515625 274.339844 105.910156 274.339844 C 116.789062 274.339844 125.203125 273.394531 131.671875 272.136719 C 132.320312 256.441406 139.414062 242.417969 150.398438 232.621094 Z M 150.398438 232.621094 " fill-opacity="1" fill-rule="nonzero"/></g><g clip-path="url(#e18f511201)"><path fill="#ffffff" d="M 269.109375 197.789062 C 247.703125 197.789062 229.726562 212.550781 224.671875 232.417969 C 235.800781 242.234375 242.992188 256.367188 243.632812 272.191406 C 250.066406 273.421875 258.386719 274.339844 269.109375 274.339844 C 300.5 274.339844 311.785156 266.550781 312.96875 265.664062 C 314.253906 264.703125 315.007812 263.1875 315.007812 261.582031 L 315.007812 243.71875 C 315.007812 218.390625 294.417969 197.789062 269.109375 197.789062 Z M 269.109375 197.789062 " fill-opacity="1" fill-rule="nonzero"/></g><path fill="#ffffff" d="M 299.84375 162.207031 C 299.84375 163.207031 299.796875 164.207031 299.699219 165.207031 C 299.601562 166.203125 299.453125 167.195312 299.257812 168.179688 C 299.0625 169.164062 298.820312 170.132812 298.527344 171.09375 C 298.238281 172.054688 297.898438 172.996094 297.515625 173.921875 C 297.132812 174.851562 296.703125 175.753906 296.230469 176.640625 C 295.761719 177.523438 295.246094 178.382812 294.6875 179.21875 C 294.132812 180.050781 293.535156 180.855469 292.898438 181.628906 C 292.265625 182.40625 291.59375 183.148438 290.882812 183.855469 C 290.175781 184.566406 289.433594 185.238281 288.65625 185.875 C 287.882812 186.511719 287.078125 187.109375 286.246094 187.664062 C 285.414062 188.222656 284.554688 188.738281 283.671875 189.210938 C 282.785156 189.683594 281.882812 190.109375 280.957031 190.496094 C 280.03125 190.878906 279.085938 191.214844 278.128906 191.507812 C 277.167969 191.796875 276.199219 192.042969 275.214844 192.238281 C 274.234375 192.433594 273.242188 192.578125 272.246094 192.675781 C 271.25 192.777344 270.25 192.824219 269.246094 192.824219 C 268.242188 192.824219 267.246094 192.777344 266.246094 192.675781 C 265.25 192.578125 264.257812 192.433594 263.277344 192.238281 C 262.292969 192.042969 261.324219 191.796875 260.363281 191.507812 C 259.40625 191.214844 258.460938 190.878906 257.535156 190.496094 C 256.609375 190.109375 255.707031 189.683594 254.820312 189.210938 C 253.9375 188.738281 253.078125 188.222656 252.246094 187.664062 C 251.414062 187.109375 250.609375 186.511719 249.835938 185.875 C 249.058594 185.238281 248.316406 184.566406 247.609375 183.855469 C 246.902344 183.148438 246.226562 182.40625 245.59375 181.628906 C 244.957031 180.855469 244.359375 180.050781 243.804688 179.21875 C 243.246094 178.382812 242.730469 177.523438 242.261719 176.640625 C 241.789062 175.753906 241.359375 174.851562 240.976562 173.921875 C 240.59375 172.996094 240.253906 172.054688 239.964844 171.09375 C 239.671875 170.132812 239.429688 169.164062 239.234375 168.179688 C 239.039062 167.195312 238.890625 166.203125 238.792969 165.207031 C 238.695312 164.207031 238.648438 163.207031 238.648438 162.207031 C 238.648438 161.203125 238.695312 160.203125 238.792969 159.203125 C 238.890625 158.207031 239.039062 157.214844 239.234375 156.230469 C 239.429688 155.25 239.671875 154.277344 239.964844 153.316406 C 240.253906 152.359375 240.59375 151.414062 240.976562 150.488281 C 241.359375 149.5625 241.789062 148.65625 242.261719 147.773438 C 242.730469 146.886719 243.246094 146.027344 243.804688 145.195312 C 244.359375 144.359375 244.957031 143.554688 245.59375 142.78125 C 246.226562 142.003906 246.902344 141.261719 247.609375 140.554688 C 248.316406 139.84375 249.058594 139.171875 249.835938 138.535156 C 250.609375 137.898438 251.414062 137.304688 252.246094 136.746094 C 253.078125 136.1875 253.9375 135.675781 254.820312 135.203125 C 255.707031 134.730469 256.609375 134.300781 257.535156 133.917969 C 258.460938 133.53125 259.40625 133.195312 260.363281 132.90625 C 261.324219 132.613281 262.292969 132.371094 263.277344 132.175781 C 264.257812 131.980469 265.25 131.832031 266.246094 131.734375 C 267.246094 131.636719 268.242188 131.585938 269.246094 131.585938 C 270.25 131.585938 271.25 131.636719 272.246094 131.734375 C 273.242188 131.832031 274.234375 131.980469 275.214844 132.175781 C 276.199219 132.371094 277.167969 132.613281 278.128906 132.90625 C 279.085938 133.195312 280.03125 133.53125 280.957031 133.917969 C 281.882812 134.300781 282.785156 134.730469 283.671875 135.203125 C 284.554688 135.675781 285.414062 136.1875 286.246094 136.746094 C 287.078125 137.304688 287.882812 137.898438 288.65625 138.535156 C 289.433594 139.171875 290.175781 139.84375 290.882812 140.554688 C 291.59375 141.261719 292.265625 142.003906 292.898438 142.78125 C 293.535156 143.554688 294.132812 144.359375 294.6875 145.195312 C 295.246094 146.027344 295.761719 146.886719 296.230469 147.773438 C 296.703125 148.65625 297.132812 149.5625 297.515625 150.488281 C 297.898438 151.414062 298.238281 152.359375 298.527344 153.316406 C 298.820312 154.277344 299.0625 155.25 299.257812 156.230469 C 299.453125 157.214844 299.601562 158.207031 299.699219 159.203125 C 299.796875 160.203125 299.84375 161.203125 299.84375 162.207031 Z M 299.84375 162.207031 " fill-opacity="1" fill-rule="nonzero"/><path fill="#ffffff" d="M 136.648438 162.207031 C 136.648438 163.207031 136.597656 164.207031 136.5 165.207031 C 136.402344 166.203125 136.257812 167.195312 136.0625 168.179688 C 135.863281 169.164062 135.621094 170.132812 135.332031 171.09375 C 135.039062 172.054688 134.703125 172.996094 134.320312 173.921875 C 133.9375 174.851562 133.507812 175.753906 133.035156 176.640625 C 132.5625 177.523438 132.046875 178.382812 131.492188 179.21875 C 130.933594 180.050781 130.339844 180.855469 129.703125 181.628906 C 129.066406 182.40625 128.394531 183.148438 127.6875 183.855469 C 126.976562 184.566406 126.234375 185.238281 125.460938 185.875 C 124.6875 186.511719 123.882812 187.109375 123.050781 187.664062 C 122.214844 188.222656 121.355469 188.738281 120.472656 189.210938 C 119.589844 189.683594 118.683594 190.109375 117.757812 190.496094 C 116.832031 190.878906 115.890625 191.214844 114.929688 191.507812 C 113.972656 191.796875 113 192.042969 112.019531 192.238281 C 111.035156 192.433594 110.046875 192.578125 109.046875 192.675781 C 108.050781 192.777344 107.050781 192.824219 106.050781 192.824219 C 105.046875 192.824219 104.046875 192.777344 103.050781 192.675781 C 102.050781 192.578125 101.0625 192.433594 100.078125 192.238281 C 99.097656 192.042969 98.125 191.796875 97.167969 191.507812 C 96.207031 191.214844 95.265625 190.878906 94.339844 190.496094 C 93.414062 190.109375 92.507812 189.683594 91.625 189.210938 C 90.742188 188.738281 89.882812 188.222656 89.050781 187.664062 C 88.214844 187.109375 87.410156 186.511719 86.636719 185.875 C 85.863281 185.238281 85.121094 184.566406 84.410156 183.855469 C 83.703125 183.148438 83.03125 182.40625 82.394531 181.628906 C 81.757812 180.855469 81.164062 180.050781 80.605469 179.21875 C 80.050781 178.382812 79.535156 177.523438 79.0625 176.640625 C 78.589844 175.753906 78.164062 174.851562 77.777344 173.921875 C 77.394531 172.996094 77.058594 172.054688 76.765625 171.09375 C 76.476562 170.132812 76.234375 169.164062 76.039062 168.179688 C 75.84375 167.195312 75.695312 166.203125 75.597656 165.207031 C 75.5 164.207031 75.449219 163.207031 75.449219 162.207031 C 75.449219 161.203125 75.5 160.203125 75.597656 159.203125 C 75.695312 158.207031 75.84375 157.214844 76.039062 156.230469 C 76.234375 155.25 76.476562 154.277344 76.765625 153.316406 C 77.058594 152.359375 77.394531 151.414062 77.777344 150.488281 C 78.164062 149.5625 78.589844 148.65625 79.0625 147.773438 C 79.535156 146.886719 80.050781 146.027344 80.605469 145.195312 C 81.164062 144.359375 81.757812 143.554688 82.394531 142.78125 C 83.03125 142.003906 83.703125 141.261719 84.410156 140.554688 C 85.121094 139.84375 85.863281 139.171875 86.636719 138.535156 C 87.410156 137.898438 88.214844 137.304688 89.050781 136.746094 C 89.882812 136.1875 90.742188 135.675781 91.625 135.203125 C 92.507812 134.730469 93.414062 134.300781 94.339844 133.917969 C 95.265625 133.53125 96.207031 133.195312 97.167969 132.90625 C 98.125 132.613281 99.097656 132.371094 100.078125 132.175781 C 101.0625 131.980469 102.050781 131.832031 103.050781 131.734375 C 104.046875 131.636719 105.046875 131.585938 106.050781 131.585938 C 107.050781 131.585938 108.050781 131.636719 109.046875 131.734375 C 110.046875 131.832031 111.035156 131.980469 112.019531 132.175781 C 113 132.371094 113.972656 132.613281 114.929688 132.90625 C 115.890625 133.195312 116.832031 133.53125 117.757812 133.917969 C 118.683594 134.300781 119.589844 134.730469 120.472656 135.203125 C 121.355469 135.675781 122.214844 136.1875 123.050781 136.746094 C 123.882812 137.304688 124.6875 137.898438 125.460938 138.535156 C 126.234375 139.171875 126.976562 139.84375 127.6875 140.554688 C 128.394531 141.261719 129.066406 142.003906 129.703125 142.78125 C 130.339844 143.554688 130.933594 144.359375 131.492188 145.195312 C 132.046875 146.027344 132.5625 146.886719 133.035156 147.773438 C 133.507812 148.65625 133.9375 149.5625 134.320312 150.488281 C 134.703125 151.414062 135.039062 152.359375 135.332031 153.316406 C 135.621094 154.277344 135.863281 155.25 136.0625 156.230469 C 136.257812 157.214844 136.402344 158.207031 136.5 159.203125 C 136.597656 160.203125 136.648438 161.203125 136.648438 162.207031 Z M 136.648438 162.207031 " fill-opacity="1" fill-rule="nonzero"/><path fill="#ffffff" d="M 228.445312 192.824219 C 228.445312 198.546875 227.257812 203.992188 225.125 208.929688 C 230.097656 202.628906 236.378906 197.496094 243.488281 193.824219 C 234.316406 186.332031 228.453125 174.941406 228.453125 162.207031 C 228.453125 149.390625 234.394531 137.953125 243.648438 130.464844 C 238.773438 127.859375 233.269531 126.34375 227.289062 126.34375 C 210.769531 126.34375 197.128906 137.285156 192.96875 152.386719 C 212.949219 155.011719 228.445312 172.121094 228.445312 192.824219 Z M 228.445312 192.824219 " fill-opacity="1" fill-rule="nonzero"/><path fill="#ffffff" d="M 146.847656 162.207031 C 146.847656 174.988281 140.933594 186.414062 131.707031 193.90625 C 139.132812 197.765625 145.621094 203.242188 150.667969 209.960938 C 148.242188 204.746094 146.847656 198.949219 146.847656 192.824219 C 146.847656 172.550781 161.710938 155.730469 181.089844 152.574219 C 176.992188 137.378906 163.300781 126.34375 146.710938 126.34375 C 141.039062 126.34375 135.78125 127.691406 131.09375 130.050781 C 140.664062 137.527344 146.847656 149.144531 146.847656 162.207031 Z M 146.847656 162.207031 " fill-opacity="1" fill-rule="nonzero"/></svg>