<svg xmlns="http://www.w3.org/2000/svg" xmlns:xlink="http://www.w3.org/1999/xlink" width="500" zoomAndPan="magnify" viewBox="0 0 375 374.999991" height="500" preserveAspectRatio="xMidYMid meet" version="1.0"><defs><clipPath id="26e3559fa2"><path d="M 187.5 0 C 83.945312 0 0 83.945312 0 187.5 C 0 291.054688 83.945312 375 187.5 375 C 291.054688 375 375 291.054688 375 187.5 C 375 83.945312 291.054688 0 187.5 0 " clip-rule="nonzero"/></clipPath><clipPath id="15896e4bc9"><path d="M 5.222656 5.222656 L 369.777344 5.222656 L 369.777344 369.777344 L 5.222656 369.777344 Z M 5.222656 5.222656 " clip-rule="nonzero"/></clipPath><clipPath id="feafa74cd1"><path d="M 187.5 5.222656 C 86.832031 5.222656 5.222656 86.832031 5.222656 187.5 C 5.222656 288.167969 86.832031 369.777344 187.5 369.777344 C 288.167969 369.777344 369.777344 288.167969 369.777344 187.5 C 369.777344 86.832031 288.167969 5.222656 187.5 5.222656 " clip-rule="nonzero"/></clipPath></defs><g clip-path="url(#26e3559fa2)"><rect x="-37.5" width="450" fill="#ffffff" y="-37.499999" height="449.999989" fill-opacity="1"/></g><g clip-path="url(#15896e4bc9)"><g clip-path="url(#feafa74cd1)"><path fill="#202428" d="M 5.222656 5.222656 L 369.777344 5.222656 L 369.777344 369.777344 L 5.222656 369.777344 Z M 5.222656 5.222656 " fill-opacity="1" fill-rule="nonzero"/></g></g><path fill="#ffffff" d="M 185.34375 71.859375 C 182.894531 71.855469 180.445312 71.933594 178 72.089844 C 175.554688 72.25 173.117188 72.488281 170.6875 72.808594 C 168.253906 73.128906 165.839844 73.527344 163.4375 74.007812 C 161.03125 74.488281 158.648438 75.046875 156.28125 75.683594 C 153.914062 76.320312 151.570312 77.035156 149.253906 77.828125 C 146.933594 78.621094 144.640625 79.488281 142.378906 80.433594 C 140.117188 81.375 137.890625 82.394531 135.695312 83.484375 C 133.5 84.574219 131.34375 85.738281 129.226562 86.972656 C 127.109375 88.203125 125.035156 89.507812 123.003906 90.878906 C 120.96875 92.246094 118.984375 93.683594 117.050781 95.1875 C 115.113281 96.6875 113.226562 98.25 111.394531 99.878906 C 109.558594 101.503906 107.78125 103.191406 106.0625 104.933594 C 104.339844 106.675781 102.675781 108.476562 101.074219 110.332031 C 99.46875 112.183594 97.929688 114.089844 96.453125 116.042969 C 94.976562 118 93.5625 120.003906 92.21875 122.050781 C 90.875 124.101562 89.597656 126.191406 88.390625 128.324219 C 87.1875 130.457031 86.050781 132.628906 84.988281 134.835938 C 83.925781 137.046875 82.933594 139.285156 82.019531 141.558594 C 81.105469 143.832031 80.265625 146.136719 79.503906 148.464844 C 78.742188 150.792969 78.054688 153.144531 77.449219 155.519531 C 76.839844 157.894531 76.3125 160.285156 75.863281 162.695312 C 75.414062 165.105469 75.046875 167.527344 74.753906 169.960938 C 74.464844 172.394531 74.257812 174.832031 74.128906 177.28125 C 74.003906 179.730469 73.957031 182.179688 73.988281 184.628906 C 74.023438 187.078125 74.136719 189.527344 74.335938 191.96875 C 74.53125 194.410156 74.804688 196.847656 75.164062 199.269531 C 75.519531 201.695312 75.957031 204.105469 76.472656 206.5 C 76.988281 208.898438 77.582031 211.273438 78.253906 213.628906 C 78.929688 215.988281 79.679688 218.320312 80.507812 220.625 C 81.332031 222.933594 82.234375 225.210938 83.214844 227.457031 C 84.191406 229.703125 85.242188 231.917969 86.367188 234.09375 C 87.488281 236.273438 88.683594 238.410156 89.949219 240.511719 L 74.25 287.605469 C 74.117188 288.003906 74.03125 288.414062 73.996094 288.832031 C 73.960938 289.25 73.976562 289.667969 74.039062 290.082031 C 74.101562 290.5 74.214844 290.902344 74.371094 291.289062 C 74.53125 291.679688 74.734375 292.042969 74.980469 292.382812 C 75.226562 292.726562 75.507812 293.03125 75.828125 293.304688 C 76.144531 293.582031 76.492188 293.8125 76.867188 294.003906 C 77.238281 294.195312 77.628906 294.339844 78.039062 294.441406 C 78.449219 294.539062 78.863281 294.585938 79.28125 294.585938 C 79.855469 294.589844 80.414062 294.496094 80.960938 294.3125 L 128.054688 278.617188 C 129.886719 279.714844 131.75 280.761719 133.640625 281.753906 C 135.53125 282.746094 137.449219 283.6875 139.394531 284.566406 C 141.339844 285.449219 143.308594 286.277344 145.300781 287.046875 C 147.292969 287.8125 149.308594 288.523438 151.339844 289.179688 C 153.375 289.832031 155.425781 290.425781 157.492188 290.960938 C 159.5625 291.496094 161.644531 291.972656 163.738281 292.386719 C 165.832031 292.800781 167.9375 293.15625 170.054688 293.449219 C 172.171875 293.746094 174.292969 293.976562 176.421875 294.148438 C 178.550781 294.320312 180.683594 294.433594 182.820312 294.480469 C 184.953125 294.53125 187.089844 294.519531 189.222656 294.445312 C 191.359375 294.371094 193.488281 294.234375 195.617188 294.039062 C 197.742188 293.84375 199.863281 293.585938 201.976562 293.265625 C 204.085938 292.949219 206.1875 292.570312 208.277344 292.128906 C 210.371094 291.691406 212.445312 291.191406 214.507812 290.632812 C 216.570312 290.074219 218.613281 289.457031 220.636719 288.78125 C 222.664062 288.105469 224.667969 287.371094 226.652344 286.578125 C 228.636719 285.785156 230.597656 284.9375 232.53125 284.035156 C 234.464844 283.128906 236.375 282.167969 238.253906 281.15625 C 240.132812 280.140625 241.980469 279.074219 243.800781 277.953125 C 245.617188 276.832031 247.402344 275.660156 249.15625 274.433594 C 250.90625 273.210938 252.621094 271.9375 254.296875 270.617188 C 255.972656 269.292969 257.613281 267.925781 259.210938 266.507812 C 260.808594 265.09375 262.367188 263.628906 263.882812 262.125 C 265.394531 260.617188 266.867188 259.070312 268.292969 257.480469 C 269.71875 255.886719 271.097656 254.257812 272.425781 252.585938 C 273.757812 250.917969 275.042969 249.210938 276.273438 247.464844 C 277.507812 245.722656 278.691406 243.945312 279.820312 242.132812 C 280.953125 240.320312 282.03125 238.476562 283.054688 236.605469 C 284.082031 234.730469 285.050781 232.828125 285.964844 230.898438 C 286.882812 228.96875 287.742188 227.011719 288.542969 225.035156 C 289.347656 223.054688 290.09375 221.054688 290.78125 219.03125 C 291.46875 217.007812 292.097656 214.96875 292.667969 212.910156 C 293.238281 210.851562 293.75 208.777344 294.199219 206.691406 C 294.648438 204.601562 295.039062 202.503906 295.371094 200.394531 C 295.703125 198.28125 295.96875 196.164062 296.179688 194.039062 C 296.386719 191.914062 296.535156 189.785156 296.621094 187.648438 C 296.707031 185.515625 296.730469 183.378906 296.691406 181.242188 C 296.65625 179.109375 296.554688 176.976562 296.398438 174.84375 C 296.238281 172.714844 296.015625 170.589844 295.734375 168.472656 C 295.449219 166.355469 295.109375 164.25 294.703125 162.152344 C 294.300781 160.054688 293.835938 157.96875 293.3125 155.898438 C 292.789062 153.828125 292.207031 151.773438 291.566406 149.738281 C 290.925781 147.699219 290.222656 145.683594 289.464844 143.6875 C 288.707031 141.6875 287.894531 139.714844 287.023438 137.765625 C 286.152344 135.816406 285.222656 133.890625 284.242188 131.996094 C 283.261719 130.097656 282.222656 128.230469 281.132812 126.394531 C 280.042969 124.554688 278.902344 122.75 277.710938 120.980469 C 276.515625 119.207031 275.273438 117.472656 273.980469 115.773438 C 272.6875 114.074219 271.34375 112.410156 269.957031 110.789062 C 268.566406 109.167969 267.132812 107.585938 265.652344 106.046875 C 264.171875 104.503906 262.648438 103.007812 261.082031 101.554688 C 259.515625 100.105469 257.910156 98.699219 256.261719 97.335938 C 254.617188 95.976562 252.929688 94.667969 251.207031 93.402344 C 249.484375 92.140625 247.726562 90.929688 245.933594 89.765625 C 244.144531 88.605469 242.320312 87.496094 240.460938 86.4375 C 238.605469 85.382812 236.722656 84.378906 234.808594 83.429688 C 232.894531 82.480469 230.953125 81.589844 228.988281 80.753906 C 227.023438 79.917969 225.035156 79.136719 223.023438 78.414062 C 221.015625 77.691406 218.984375 77.027344 216.9375 76.421875 C 214.886719 75.816406 212.824219 75.273438 210.746094 74.785156 C 208.664062 74.296875 206.574219 73.871094 204.46875 73.503906 C 202.363281 73.140625 200.25 72.835938 198.128906 72.589844 C 196.007812 72.34375 193.878906 72.160156 191.746094 72.039062 C 189.613281 71.917969 187.480469 71.855469 185.34375 71.859375 Z M 185.34375 283.980469 C 180.605469 283.976562 175.890625 283.640625 171.199219 282.96875 C 166.511719 282.300781 161.890625 281.300781 157.339844 279.976562 C 152.792969 278.652344 148.359375 277.011719 144.042969 275.0625 C 139.722656 273.109375 135.566406 270.863281 131.566406 268.320312 C 130.699219 267.773438 129.753906 267.496094 128.730469 267.496094 C 128.15625 267.496094 127.59375 267.589844 127.050781 267.773438 L 87.660156 280.898438 L 100.792969 241.515625 C 101.042969 240.757812 101.121094 239.984375 101.023438 239.195312 C 100.929688 238.40625 100.667969 237.671875 100.246094 237 C 99.261719 235.4375 98.320312 233.851562 97.425781 232.238281 C 96.527344 230.628906 95.675781 228.992188 94.867188 227.332031 C 94.0625 225.675781 93.300781 223.996094 92.585938 222.292969 C 91.871094 220.59375 91.203125 218.875 90.582031 217.136719 C 89.964844 215.398438 89.390625 213.644531 88.867188 211.875 C 88.34375 210.105469 87.871094 208.324219 87.445312 206.53125 C 87.019531 204.734375 86.640625 202.929688 86.316406 201.113281 C 85.988281 199.296875 85.710938 197.472656 85.488281 195.644531 C 85.261719 193.8125 85.085938 191.976562 84.960938 190.136719 C 84.832031 188.296875 84.757812 186.453125 84.734375 184.609375 C 84.710938 182.761719 84.738281 180.917969 84.816406 179.074219 C 84.890625 177.230469 85.019531 175.390625 85.199219 173.554688 C 85.375 171.71875 85.605469 169.890625 85.882812 168.066406 C 86.164062 166.242188 86.492188 164.429688 86.871094 162.621094 C 87.25 160.816406 87.679688 159.023438 88.15625 157.242188 C 88.632812 155.457031 89.160156 153.691406 89.734375 151.9375 C 90.308594 150.183594 90.929688 148.449219 91.601562 146.730469 C 92.269531 145.011719 92.988281 143.3125 93.75 141.632812 C 94.511719 139.953125 95.320312 138.296875 96.175781 136.660156 C 97.03125 135.023438 97.929688 133.414062 98.871094 131.828125 C 99.816406 130.242188 100.800781 128.683594 101.832031 127.152344 C 102.859375 125.621094 103.929688 124.121094 105.039062 122.648438 C 106.152344 121.175781 107.300781 119.734375 108.492188 118.324219 C 109.683594 116.914062 110.910156 115.539062 112.175781 114.195312 C 113.445312 112.855469 114.746094 111.546875 116.082031 110.277344 C 117.421875 109.007812 118.792969 107.773438 120.199219 106.578125 C 121.605469 105.386719 123.042969 104.230469 124.511719 103.113281 C 125.980469 101.996094 127.476562 100.921875 129.007812 99.890625 C 130.535156 98.855469 132.089844 97.863281 133.671875 96.917969 C 135.253906 95.96875 136.863281 95.066406 138.496094 94.207031 C 140.128906 93.34375 141.78125 92.53125 143.460938 91.761719 C 145.136719 90.992188 146.832031 90.273438 148.550781 89.597656 C 150.265625 88.921875 152 88.292969 153.753906 87.714844 C 155.503906 87.132812 157.269531 86.601562 159.050781 86.117188 C 160.832031 85.636719 162.625 85.203125 164.429688 84.816406 C 166.230469 84.433594 168.046875 84.097656 169.867188 83.8125 C 171.691406 83.527344 173.519531 83.292969 175.355469 83.109375 C 177.191406 82.925781 179.03125 82.792969 180.875 82.707031 C 182.71875 82.625 184.5625 82.59375 186.40625 82.609375 C 188.25 82.628906 190.09375 82.699219 191.933594 82.816406 C 193.777344 82.9375 195.613281 83.105469 197.445312 83.328125 C 199.277344 83.546875 201.101562 83.816406 202.917969 84.136719 C 204.734375 84.460938 206.539062 84.828125 208.335938 85.25 C 210.132812 85.667969 211.917969 86.136719 213.6875 86.65625 C 215.457031 87.175781 217.214844 87.742188 218.953125 88.355469 C 220.691406 88.96875 222.414062 89.632812 224.117188 90.339844 C 225.820312 91.050781 227.503906 91.804688 229.164062 92.605469 C 230.824219 93.410156 232.464844 94.253906 234.078125 95.148438 C 235.695312 96.039062 237.285156 96.972656 238.847656 97.953125 C 240.410156 98.933594 241.945312 99.953125 243.453125 101.015625 C 244.960938 102.082031 246.4375 103.183594 247.886719 104.328125 C 249.332031 105.472656 250.746094 106.65625 252.128906 107.878906 C 253.511719 109.101562 254.859375 110.363281 256.171875 111.65625 C 257.484375 112.953125 258.757812 114.285156 260 115.652344 C 261.238281 117.019531 262.4375 118.417969 263.601562 119.851562 C 264.765625 121.285156 265.886719 122.746094 266.96875 124.242188 C 268.050781 125.734375 269.089844 127.257812 270.089844 128.808594 C 271.085938 130.363281 272.042969 131.941406 272.953125 133.542969 C 273.863281 135.148438 274.730469 136.777344 275.554688 138.425781 C 276.375 140.078125 277.152344 141.75 277.882812 143.445312 C 278.613281 145.140625 279.296875 146.851562 279.929688 148.585938 C 280.566406 150.316406 281.15625 152.066406 281.695312 153.828125 C 282.234375 155.59375 282.726562 157.371094 283.167969 159.160156 C 283.609375 160.953125 284.003906 162.753906 284.347656 164.566406 C 284.6875 166.378906 284.980469 168.203125 285.226562 170.03125 C 285.46875 171.859375 285.660156 173.691406 285.804688 175.53125 C 285.945312 177.371094 286.035156 179.214844 286.078125 181.058594 C 286.117188 182.902344 286.109375 184.746094 286.046875 186.589844 C 285.988281 188.433594 285.878906 190.277344 285.714844 192.113281 C 285.554688 193.953125 285.34375 195.785156 285.078125 197.609375 C 284.816406 199.433594 284.503906 201.253906 284.144531 203.0625 C 283.78125 204.871094 283.367188 206.667969 282.90625 208.457031 C 282.445312 210.242188 281.9375 212.015625 281.378906 213.773438 C 280.820312 215.53125 280.214844 217.273438 279.558594 218.996094 C 278.90625 220.722656 278.203125 222.429688 277.457031 224.113281 C 276.707031 225.800781 275.914062 227.464844 275.074219 229.109375 C 274.234375 230.75 273.351562 232.371094 272.421875 233.964844 C 271.496094 235.558594 270.523438 237.125 269.507812 238.667969 C 268.496094 240.207031 267.4375 241.71875 266.339844 243.203125 C 265.242188 244.683594 264.105469 246.136719 262.925781 247.558594 C 261.75 248.976562 260.535156 250.363281 259.28125 251.71875 C 258.027344 253.070312 256.738281 254.390625 255.410156 255.671875 C 254.085938 256.953125 252.722656 258.199219 251.328125 259.40625 C 249.933594 260.613281 248.507812 261.785156 247.050781 262.914062 C 245.589844 264.042969 244.101562 265.128906 242.582031 266.179688 C 241.0625 267.226562 239.519531 268.230469 237.945312 269.191406 C 236.371094 270.15625 234.769531 271.074219 233.148438 271.949219 C 231.523438 272.824219 229.875 273.652344 228.203125 274.4375 C 226.535156 275.21875 224.84375 275.957031 223.132812 276.648438 C 221.421875 277.339844 219.695312 277.984375 217.949219 278.582031 C 216.203125 279.175781 214.441406 279.722656 212.667969 280.222656 C 210.890625 280.722656 209.101562 281.171875 207.300781 281.574219 C 205.5 281.976562 203.691406 282.328125 201.871094 282.628906 C 200.050781 282.929688 198.222656 283.179688 196.390625 283.382812 C 194.554688 283.582031 192.714844 283.734375 190.875 283.832031 C 189.03125 283.933594 187.1875 283.984375 185.34375 283.980469 Z M 142.917969 183.222656 C 142.917969 183.917969 142.851562 184.609375 142.714844 185.292969 C 142.578125 185.976562 142.378906 186.636719 142.113281 187.28125 C 141.84375 187.925781 141.519531 188.535156 141.132812 189.113281 C 140.746094 189.695312 140.304688 190.230469 139.8125 190.722656 C 139.320312 191.214844 138.785156 191.65625 138.207031 192.042969 C 137.625 192.429688 137.015625 192.753906 136.371094 193.023438 C 135.726562 193.289062 135.066406 193.488281 134.382812 193.625 C 133.699219 193.761719 133.007812 193.828125 132.3125 193.828125 C 131.617188 193.828125 130.925781 193.761719 130.242188 193.625 C 129.5625 193.488281 128.898438 193.289062 128.253906 193.023438 C 127.609375 192.753906 127 192.429688 126.421875 192.042969 C 125.839844 191.65625 125.304688 191.214844 124.8125 190.722656 C 124.320312 190.230469 123.882812 189.695312 123.496094 189.113281 C 123.105469 188.535156 122.78125 187.925781 122.515625 187.28125 C 122.246094 186.636719 122.046875 185.976562 121.910156 185.292969 C 121.773438 184.609375 121.707031 183.917969 121.707031 183.222656 C 121.707031 182.527344 121.773438 181.835938 121.910156 181.152344 C 122.046875 180.46875 122.246094 179.808594 122.515625 179.164062 C 122.78125 178.519531 123.105469 177.910156 123.496094 177.332031 C 123.882812 176.75 124.320312 176.214844 124.8125 175.722656 C 125.304688 175.230469 125.839844 174.789062 126.421875 174.402344 C 127 174.015625 127.609375 173.691406 128.253906 173.421875 C 128.898438 173.15625 129.5625 172.957031 130.242188 172.820312 C 130.925781 172.683594 131.617188 172.617188 132.3125 172.617188 C 133.007812 172.617188 133.699219 172.683594 134.382812 172.820312 C 135.066406 172.957031 135.726562 173.15625 136.371094 173.421875 C 137.015625 173.691406 137.625 174.015625 138.207031 174.402344 C 138.785156 174.789062 139.320312 175.230469 139.8125 175.722656 C 140.304688 176.214844 140.746094 176.75 141.132812 177.332031 C 141.519531 177.910156 141.84375 178.519531 142.113281 179.164062 C 142.378906 179.808594 142.578125 180.46875 142.714844 181.152344 C 142.851562 181.835938 142.917969 182.527344 142.917969 183.222656 Z M 195.949219 183.222656 C 195.949219 183.917969 195.882812 184.609375 195.746094 185.292969 C 195.609375 185.976562 195.410156 186.636719 195.144531 187.28125 C 194.875 187.925781 194.550781 188.535156 194.164062 189.113281 C 193.777344 189.695312 193.335938 190.230469 192.84375 190.722656 C 192.351562 191.214844 191.816406 191.65625 191.238281 192.042969 C 190.65625 192.429688 190.046875 192.753906 189.402344 193.023438 C 188.757812 193.289062 188.097656 193.488281 187.414062 193.625 C 186.730469 193.761719 186.039062 193.828125 185.34375 193.828125 C 184.648438 193.828125 183.957031 193.761719 183.273438 193.625 C 182.589844 193.488281 181.929688 193.289062 181.285156 193.023438 C 180.640625 192.753906 180.03125 192.429688 179.453125 192.042969 C 178.871094 191.65625 178.335938 191.214844 177.84375 190.722656 C 177.351562 190.230469 176.910156 189.695312 176.523438 189.113281 C 176.136719 188.535156 175.8125 187.925781 175.546875 187.28125 C 175.277344 186.636719 175.078125 185.976562 174.941406 185.292969 C 174.804688 184.609375 174.738281 183.917969 174.738281 183.222656 C 174.738281 182.527344 174.804688 181.835938 174.941406 181.152344 C 175.078125 180.46875 175.277344 179.808594 175.546875 179.164062 C 175.8125 178.519531 176.136719 177.910156 176.523438 177.332031 C 176.910156 176.75 177.351562 176.214844 177.84375 175.722656 C 178.335938 175.230469 178.871094 174.789062 179.453125 174.402344 C 180.03125 174.015625 180.640625 173.691406 181.285156 173.421875 C 181.929688 173.15625 182.589844 172.957031 183.273438 172.820312 C 183.957031 172.683594 184.648438 172.617188 185.34375 172.617188 C 186.039062 172.617188 186.730469 172.683594 187.414062 172.820312 C 188.097656 172.957031 188.757812 173.15625 189.402344 173.421875 C 190.046875 173.691406 190.65625 174.015625 191.238281 174.402344 C 191.816406 174.789062 192.351562 175.230469 192.84375 175.722656 C 193.335938 176.214844 193.777344 176.75 194.164062 177.332031 C 194.550781 177.910156 194.875 178.519531 195.144531 179.164062 C 195.410156 179.808594 195.609375 180.46875 195.746094 181.152344 C 195.882812 181.835938 195.949219 182.527344 195.949219 183.222656 Z M 248.980469 183.222656 C 248.980469 183.917969 248.914062 184.609375 248.777344 185.292969 C 248.640625 185.976562 248.441406 186.636719 248.171875 187.28125 C 247.90625 187.925781 247.582031 188.535156 247.195312 189.113281 C 246.808594 189.695312 246.367188 190.230469 245.875 190.722656 C 245.382812 191.214844 244.847656 191.65625 244.265625 192.042969 C 243.6875 192.429688 243.078125 192.753906 242.433594 193.023438 C 241.789062 193.289062 241.128906 193.488281 240.445312 193.625 C 239.761719 193.761719 239.070312 193.828125 238.375 193.828125 C 237.679688 193.828125 236.988281 193.761719 236.304688 193.625 C 235.621094 193.488281 234.960938 193.289062 234.316406 193.023438 C 233.671875 192.753906 233.0625 192.429688 232.484375 192.042969 C 231.902344 191.65625 231.367188 191.214844 230.875 190.722656 C 230.382812 190.230469 229.941406 189.695312 229.554688 189.113281 C 229.167969 188.535156 228.84375 187.925781 228.574219 187.28125 C 228.308594 186.636719 228.109375 185.976562 227.972656 185.292969 C 227.835938 184.609375 227.769531 183.917969 227.769531 183.222656 C 227.769531 182.527344 227.835938 181.835938 227.972656 181.152344 C 228.109375 180.46875 228.308594 179.808594 228.574219 179.164062 C 228.84375 178.519531 229.167969 177.910156 229.554688 177.332031 C 229.941406 176.75 230.382812 176.214844 230.875 175.722656 C 231.367188 175.230469 231.902344 174.789062 232.484375 174.402344 C 233.0625 174.015625 233.671875 173.691406 234.316406 173.421875 C 234.960938 173.15625 235.621094 172.957031 236.304688 172.820312 C 236.988281 172.683594 237.679688 172.617188 238.375 172.617188 C 239.070312 172.617188 239.761719 172.683594 240.445312 172.820312 C 241.128906 172.957031 241.789062 173.15625 242.433594 173.421875 C 243.078125 173.691406 243.6875 174.015625 244.265625 174.402344 C 244.847656 174.789062 245.382812 175.230469 245.875 175.722656 C 246.367188 176.214844 246.808594 176.75 247.195312 177.332031 C 247.582031 177.910156 247.90625 178.519531 248.171875 179.164062 C 248.441406 179.808594 248.640625 180.46875 248.777344 181.152344 C 248.914062 181.835938 248.980469 182.527344 248.980469 183.222656 Z M 248.980469 183.222656 " fill-opacity="1" fill-rule="nonzero"/></svg>